<mxfile host="app.diagrams.net" modified="2024-06-23T20:45:38.080Z" agent="Mozilla/5.0 (X11; Linux x86_64) AppleWebKit/537.36 (KHTML, like Gecko) Chrome/126.0.0.0 Safari/537.36" etag="OXesv6b-WsJDpJgq3Zeb" version="24.6.2" type="github">
  <diagram name="Page-1" id="2ca16b54-16f6-2749-3443-fa8db7711227">
    <mxGraphModel dx="1723" dy="785" grid="1" gridSize="10" guides="1" tooltips="1" connect="1" arrows="1" fold="1" page="1" pageScale="1" pageWidth="1100" pageHeight="850" background="none" math="0" shadow="0">
      <root>
        <mxCell id="0" />
        <mxCell id="1" parent="0" />
        <mxCell id="2ed32ef02a7f4228-1" value="&lt;div style=&quot;box-sizing:border-box;width:100%;background:#e4e4e4;padding:2px;&quot;&gt;iventory_type&lt;br&gt;&lt;/div&gt;&lt;table style=&quot;width:100%;font-size:1em;&quot; cellpadding=&quot;2&quot; cellspacing=&quot;0&quot;&gt;&lt;tbody&gt;&lt;tr&gt;&lt;td&gt;INT&lt;br&gt;INT&lt;/td&gt;&lt;td&gt;id (primary key)&lt;br&gt;status (2)&lt;br&gt;&lt;/td&gt;&lt;/tr&gt;&lt;tr&gt;&lt;td&gt;VARCHAR&lt;br&gt;TEXT&lt;br&gt;TEXT&lt;br&gt;INT&lt;/td&gt;&lt;td&gt;name (255)&lt;br&gt;product&lt;br&gt;stock&lt;br&gt;amount&lt;/td&gt;&lt;/tr&gt;&lt;/tbody&gt;&lt;/table&gt;" style="verticalAlign=top;align=left;overflow=fill;html=1;rounded=0;shadow=0;comic=0;labelBackgroundColor=none;strokeWidth=1;fontFamily=Verdana;fontSize=12" parent="1" vertex="1">
          <mxGeometry x="450" y="90" width="180" height="115" as="geometry" />
        </mxCell>
        <mxCell id="IIzZKnIERwlUmBjglA4g-13" style="edgeStyle=none;rounded=0;orthogonalLoop=1;jettySize=auto;html=1;exitX=1.007;exitY=0.388;exitDx=0;exitDy=0;exitPerimeter=0;" edge="1" parent="1" source="2ed32ef02a7f4228-8" target="IIzZKnIERwlUmBjglA4g-9">
          <mxGeometry relative="1" as="geometry" />
        </mxCell>
        <mxCell id="IIzZKnIERwlUmBjglA4g-24" value="&lt;span style=&quot;font-family: Verdana; font-size: 12px; text-align: left; background-color: rgb(251, 251, 251);&quot;&gt;class_reference&lt;/span&gt;" style="edgeLabel;html=1;align=center;verticalAlign=middle;resizable=0;points=[];" vertex="1" connectable="0" parent="IIzZKnIERwlUmBjglA4g-13">
          <mxGeometry x="-0.3053" y="1" relative="1" as="geometry">
            <mxPoint as="offset" />
          </mxGeometry>
        </mxCell>
        <mxCell id="IIzZKnIERwlUmBjglA4g-22" style="edgeStyle=orthogonalEdgeStyle;rounded=0;orthogonalLoop=1;jettySize=auto;html=1;exitX=0.5;exitY=0;exitDx=0;exitDy=0;entryX=1;entryY=0.75;entryDx=0;entryDy=0;" edge="1" parent="1" source="2ed32ef02a7f4228-8" target="IIzZKnIERwlUmBjglA4g-18">
          <mxGeometry relative="1" as="geometry">
            <mxPoint x="890" y="310" as="targetPoint" />
            <Array as="points">
              <mxPoint x="165" y="38" />
              <mxPoint x="910" y="38" />
              <mxPoint x="910" y="292" />
            </Array>
          </mxGeometry>
        </mxCell>
        <mxCell id="IIzZKnIERwlUmBjglA4g-27" value="&lt;span style=&quot;font-family: Verdana; font-size: 12px; text-align: left; background-color: rgb(251, 251, 251);&quot;&gt;subcategory_reference&lt;/span&gt;" style="edgeLabel;html=1;align=center;verticalAlign=middle;resizable=0;points=[];" vertex="1" connectable="0" parent="IIzZKnIERwlUmBjglA4g-22">
          <mxGeometry x="-0.3164" y="-1" relative="1" as="geometry">
            <mxPoint as="offset" />
          </mxGeometry>
        </mxCell>
        <mxCell id="IIzZKnIERwlUmBjglA4g-31" style="edgeStyle=orthogonalEdgeStyle;rounded=0;orthogonalLoop=1;jettySize=auto;html=1;exitX=0.75;exitY=1;exitDx=0;exitDy=0;entryX=0.25;entryY=1;entryDx=0;entryDy=0;" edge="1" parent="1" source="2ed32ef02a7f4228-8" target="IIzZKnIERwlUmBjglA4g-29">
          <mxGeometry relative="1" as="geometry" />
        </mxCell>
        <mxCell id="IIzZKnIERwlUmBjglA4g-33" value="&lt;span style=&quot;font-family: Verdana; font-size: 12px; text-align: left; background-color: rgb(251, 251, 251);&quot;&gt;unit_measure&lt;/span&gt;" style="edgeLabel;html=1;align=center;verticalAlign=middle;resizable=0;points=[];" vertex="1" connectable="0" parent="IIzZKnIERwlUmBjglA4g-31">
          <mxGeometry x="-0.2526" y="-2" relative="1" as="geometry">
            <mxPoint as="offset" />
          </mxGeometry>
        </mxCell>
        <mxCell id="IIzZKnIERwlUmBjglA4g-36" style="edgeStyle=orthogonalEdgeStyle;rounded=0;orthogonalLoop=1;jettySize=auto;html=1;exitX=0.5;exitY=1;exitDx=0;exitDy=0;entryX=0;entryY=0.5;entryDx=0;entryDy=0;" edge="1" parent="1" source="2ed32ef02a7f4228-8" target="IIzZKnIERwlUmBjglA4g-34">
          <mxGeometry relative="1" as="geometry" />
        </mxCell>
        <mxCell id="IIzZKnIERwlUmBjglA4g-37" value="&lt;span style=&quot;font-family: Verdana; font-size: 12px; text-align: left; background-color: rgb(228, 228, 228);&quot;&gt;product&lt;/span&gt;" style="edgeLabel;html=1;align=center;verticalAlign=middle;resizable=0;points=[];" vertex="1" connectable="0" parent="IIzZKnIERwlUmBjglA4g-36">
          <mxGeometry x="0.1079" y="1" relative="1" as="geometry">
            <mxPoint as="offset" />
          </mxGeometry>
        </mxCell>
        <mxCell id="2ed32ef02a7f4228-8" value="&lt;div style=&quot;box-sizing: border-box ; width: 100% ; background: #e4e4e4 ; padding: 2px&quot;&gt;iventory_product&lt;br&gt;&lt;/div&gt;&lt;table style=&quot;width: 100% ; font-size: 1em&quot; cellpadding=&quot;2&quot; cellspacing=&quot;0&quot;&gt;&lt;tbody&gt;&lt;tr&gt;&lt;td&gt;INT&lt;/td&gt;&lt;td&gt;id (primary key)&lt;/td&gt;&lt;/tr&gt;&lt;tr&gt;&lt;td&gt;INT&lt;/td&gt;&lt;td&gt;status (2)&lt;/td&gt;&lt;/tr&gt;&lt;tr&gt;&lt;td&gt;INT&lt;/td&gt;&lt;td&gt;type_reference (relationship)&lt;/td&gt;&lt;/tr&gt;&lt;tr&gt;&lt;td&gt;VARCHAR&lt;br&gt;INT&lt;br&gt;VARCHAR&lt;br&gt;INT&lt;br&gt;VARCHAR&lt;br&gt;INT&lt;br&gt;VARCHAR&lt;br&gt;INT&lt;br&gt;VARCHAR&lt;br&gt;VARCHAR&lt;br&gt;VARCHAR&lt;br&gt;VARCHAR&lt;br&gt;VARCHAR&lt;br&gt;VARCHAR&lt;br&gt;VARCHAR&lt;br&gt;VARCHAR&lt;br&gt;INT&lt;br&gt;VARCHAR&lt;br&gt;FLOAT&lt;br&gt;INT&lt;br&gt;TEXT&lt;br&gt;FLOAT&lt;br&gt;FLOAT&lt;br&gt;FLOAT&lt;br&gt;&lt;/td&gt;&lt;td&gt;&lt;table style=&quot;font-size: 1em; width: 240px;&quot; cellpadding=&quot;2&quot; cellspacing=&quot;0&quot;&gt;&lt;tbody&gt;&lt;tr&gt;&lt;td&gt;type_name (255)&lt;br&gt;class_reference (relationship)&lt;br&gt;class_name (255)&lt;br&gt;subclass_reference (relationship)&lt;br&gt;subclass_name (255)&lt;br&gt;category_reference (relationship)&lt;br&gt;category_name (255)&lt;br&gt;subcategory_reference (relationship)&lt;br&gt;subcategory_name (255)&lt;br&gt;commercial_name (255)&lt;br&gt;reference_name (255)&lt;br&gt;active_principle (255)&lt;br&gt;dosage (255)&lt;br&gt;model (255)&lt;br&gt;dimension (255)&lt;br&gt;color (255)&lt;br&gt;presentation_reference&amp;nbsp;(relationship)&lt;br&gt;presentation_name (255)&lt;br&gt;content (255)&lt;br&gt;unit_measure (relationship)&lt;br&gt;description&lt;br&gt;stock_minimum&lt;br&gt;stock_maximum&lt;br&gt;stock_current&lt;br&gt;&lt;/td&gt;&lt;/tr&gt;&lt;/tbody&gt;&lt;/table&gt;&lt;/td&gt;&lt;/tr&gt;&lt;/tbody&gt;&lt;/table&gt;" style="verticalAlign=top;align=left;overflow=fill;html=1;rounded=0;shadow=0;comic=0;labelBackgroundColor=none;strokeWidth=1;fontFamily=Verdana;fontSize=12" parent="1" vertex="1">
          <mxGeometry x="20" y="105" width="290" height="430" as="geometry" />
        </mxCell>
        <mxCell id="IIzZKnIERwlUmBjglA4g-3" style="edgeStyle=orthogonalEdgeStyle;rounded=0;orthogonalLoop=1;jettySize=auto;html=1;entryX=-0.017;entryY=0.333;entryDx=0;entryDy=0;entryPerimeter=0;" edge="1" parent="1" target="2ed32ef02a7f4228-1">
          <mxGeometry relative="1" as="geometry">
            <mxPoint x="310" y="135" as="sourcePoint" />
            <Array as="points">
              <mxPoint x="310" y="135" />
            </Array>
          </mxGeometry>
        </mxCell>
        <mxCell id="IIzZKnIERwlUmBjglA4g-23" value="&lt;span style=&quot;font-family: Verdana; font-size: 12px; text-align: left; background-color: rgb(251, 251, 251);&quot;&gt;type_reference&lt;/span&gt;" style="edgeLabel;html=1;align=center;verticalAlign=middle;resizable=0;points=[];" vertex="1" connectable="0" parent="IIzZKnIERwlUmBjglA4g-3">
          <mxGeometry x="-0.1223" y="-3" relative="1" as="geometry">
            <mxPoint as="offset" />
          </mxGeometry>
        </mxCell>
        <mxCell id="IIzZKnIERwlUmBjglA4g-9" value="&lt;div style=&quot;box-sizing:border-box;width:100%;background:#e4e4e4;padding:2px;&quot;&gt;iventory_class&lt;br&gt;&lt;/div&gt;&lt;table style=&quot;width:100%;font-size:1em;&quot; cellpadding=&quot;2&quot; cellspacing=&quot;0&quot;&gt;&lt;tbody&gt;&lt;tr&gt;&lt;td&gt;INT&lt;br&gt;INT&lt;/td&gt;&lt;td&gt;id (primary key)&lt;br&gt;status (2)&lt;br&gt;&lt;/td&gt;&lt;/tr&gt;&lt;tr&gt;&lt;td&gt;VARCHAR&lt;br&gt;FLOAT&lt;/td&gt;&lt;td&gt;name (255)&lt;br&gt;amount&lt;/td&gt;&lt;/tr&gt;&lt;/tbody&gt;&lt;/table&gt;" style="verticalAlign=top;align=left;overflow=fill;html=1;rounded=0;shadow=0;comic=0;labelBackgroundColor=none;strokeWidth=1;fontFamily=Verdana;fontSize=12" vertex="1" parent="1">
          <mxGeometry x="450" y="225" width="180" height="90" as="geometry" />
        </mxCell>
        <mxCell id="IIzZKnIERwlUmBjglA4g-10" value="&lt;div style=&quot;box-sizing:border-box;width:100%;background:#e4e4e4;padding:2px;&quot;&gt;iventory_subclass&lt;br&gt;&lt;/div&gt;&lt;table style=&quot;width:100%;font-size:1em;&quot; cellpadding=&quot;2&quot; cellspacing=&quot;0&quot;&gt;&lt;tbody&gt;&lt;tr&gt;&lt;td&gt;INT&lt;br&gt;INT&lt;/td&gt;&lt;td&gt;id (primary key)&lt;br&gt;status (2)&lt;br&gt;&lt;/td&gt;&lt;/tr&gt;&lt;tr&gt;&lt;td&gt;VARCHAR&lt;br&gt;FLOAT&lt;/td&gt;&lt;td&gt;name (255)&lt;br&gt;amount&lt;/td&gt;&lt;/tr&gt;&lt;/tbody&gt;&lt;/table&gt;" style="verticalAlign=top;align=left;overflow=fill;html=1;rounded=0;shadow=0;comic=0;labelBackgroundColor=none;strokeWidth=1;fontFamily=Verdana;fontSize=12" vertex="1" parent="1">
          <mxGeometry x="450" y="335" width="180" height="90" as="geometry" />
        </mxCell>
        <mxCell id="IIzZKnIERwlUmBjglA4g-14" style="edgeStyle=none;rounded=0;orthogonalLoop=1;jettySize=auto;html=1;exitX=1.004;exitY=0.661;exitDx=0;exitDy=0;entryX=0.016;entryY=0.583;entryDx=0;entryDy=0;entryPerimeter=0;exitPerimeter=0;" edge="1" parent="1" source="2ed32ef02a7f4228-8" target="IIzZKnIERwlUmBjglA4g-10">
          <mxGeometry relative="1" as="geometry" />
        </mxCell>
        <mxCell id="IIzZKnIERwlUmBjglA4g-25" value="&lt;span style=&quot;font-family: Verdana; font-size: 12px; text-align: left; background-color: rgb(251, 251, 251);&quot;&gt;subclass_reference&lt;/span&gt;" style="edgeLabel;html=1;align=center;verticalAlign=middle;resizable=0;points=[];" vertex="1" connectable="0" parent="IIzZKnIERwlUmBjglA4g-14">
          <mxGeometry x="-0.1926" relative="1" as="geometry">
            <mxPoint as="offset" />
          </mxGeometry>
        </mxCell>
        <mxCell id="IIzZKnIERwlUmBjglA4g-20" style="edgeStyle=orthogonalEdgeStyle;rounded=0;orthogonalLoop=1;jettySize=auto;html=1;exitX=0.25;exitY=0;exitDx=0;exitDy=0;entryX=0.75;entryY=0;entryDx=0;entryDy=0;" edge="1" parent="1" source="IIzZKnIERwlUmBjglA4g-17" target="2ed32ef02a7f4228-8">
          <mxGeometry relative="1" as="geometry">
            <mxPoint x="260" y="40" as="targetPoint" />
            <Array as="points">
              <mxPoint x="715" y="60" />
              <mxPoint x="238" y="60" />
            </Array>
          </mxGeometry>
        </mxCell>
        <mxCell id="IIzZKnIERwlUmBjglA4g-26" value="&lt;span style=&quot;font-family: Verdana; font-size: 12px; text-align: left; background-color: rgb(251, 251, 251);&quot;&gt;category_reference&lt;/span&gt;" style="edgeLabel;html=1;align=center;verticalAlign=middle;resizable=0;points=[];" vertex="1" connectable="0" parent="IIzZKnIERwlUmBjglA4g-20">
          <mxGeometry x="0.0136" y="5" relative="1" as="geometry">
            <mxPoint as="offset" />
          </mxGeometry>
        </mxCell>
        <mxCell id="IIzZKnIERwlUmBjglA4g-17" value="&lt;div style=&quot;box-sizing:border-box;width:100%;background:#e4e4e4;padding:2px;&quot;&gt;iventory_&lt;span style=&quot;background-color: initial;&quot;&gt;category&lt;/span&gt;&lt;br&gt;&lt;/div&gt;&lt;table style=&quot;width:100%;font-size:1em;&quot; cellpadding=&quot;2&quot; cellspacing=&quot;0&quot;&gt;&lt;tbody&gt;&lt;tr&gt;&lt;td&gt;INT&lt;br&gt;INT&lt;/td&gt;&lt;td&gt;id (primary key)&lt;br&gt;status (2)&lt;br&gt;&lt;/td&gt;&lt;/tr&gt;&lt;tr&gt;&lt;td&gt;VARCHAR&lt;br&gt;FLOAT&lt;/td&gt;&lt;td&gt;name (255)&lt;br&gt;amount&lt;/td&gt;&lt;/tr&gt;&lt;/tbody&gt;&lt;/table&gt;" style="verticalAlign=top;align=left;overflow=fill;html=1;rounded=0;shadow=0;comic=0;labelBackgroundColor=none;strokeWidth=1;fontFamily=Verdana;fontSize=12" vertex="1" parent="1">
          <mxGeometry x="670" y="105" width="180" height="90" as="geometry" />
        </mxCell>
        <mxCell id="IIzZKnIERwlUmBjglA4g-18" value="&lt;div style=&quot;box-sizing:border-box;width:100%;background:#e4e4e4;padding:2px;&quot;&gt;iventory_&lt;span style=&quot;background-color: initial;&quot;&gt;subcategory&lt;/span&gt;&lt;br&gt;&lt;/div&gt;&lt;table style=&quot;width:100%;font-size:1em;&quot; cellpadding=&quot;2&quot; cellspacing=&quot;0&quot;&gt;&lt;tbody&gt;&lt;tr&gt;&lt;td&gt;INT&lt;br&gt;INT&lt;/td&gt;&lt;td&gt;id (primary key)&lt;br&gt;status (2)&lt;br&gt;&lt;/td&gt;&lt;/tr&gt;&lt;tr&gt;&lt;td&gt;VARCHAR&lt;br&gt;FLOAT&lt;/td&gt;&lt;td&gt;name (255)&lt;br&gt;amount&lt;/td&gt;&lt;/tr&gt;&lt;/tbody&gt;&lt;/table&gt;" style="verticalAlign=top;align=left;overflow=fill;html=1;rounded=0;shadow=0;comic=0;labelBackgroundColor=none;strokeWidth=1;fontFamily=Verdana;fontSize=12" vertex="1" parent="1">
          <mxGeometry x="670" y="225" width="180" height="90" as="geometry" />
        </mxCell>
        <mxCell id="IIzZKnIERwlUmBjglA4g-28" value="&lt;div style=&quot;box-sizing:border-box;width:100%;background:#e4e4e4;padding:2px;&quot;&gt;iventory_presentation&lt;br&gt;&lt;/div&gt;&lt;table style=&quot;width:100%;font-size:1em;&quot; cellpadding=&quot;2&quot; cellspacing=&quot;0&quot;&gt;&lt;tbody&gt;&lt;tr&gt;&lt;td&gt;INT&lt;br&gt;INT&lt;/td&gt;&lt;td&gt;id (primary key)&lt;br&gt;status (2)&lt;br&gt;&lt;/td&gt;&lt;/tr&gt;&lt;tr&gt;&lt;td&gt;VARCHAR&lt;br&gt;FLOAT&lt;/td&gt;&lt;td&gt;name (255)&lt;br&gt;amount&lt;/td&gt;&lt;/tr&gt;&lt;/tbody&gt;&lt;/table&gt;" style="verticalAlign=top;align=left;overflow=fill;html=1;rounded=0;shadow=0;comic=0;labelBackgroundColor=none;strokeWidth=1;fontFamily=Verdana;fontSize=12" vertex="1" parent="1">
          <mxGeometry x="449" y="446" width="180" height="90" as="geometry" />
        </mxCell>
        <mxCell id="IIzZKnIERwlUmBjglA4g-29" value="&lt;div style=&quot;box-sizing:border-box;width:100%;background:#e4e4e4;padding:2px;&quot;&gt;iventory_unit_measure&lt;br&gt;&lt;/div&gt;&lt;table style=&quot;width:100%;font-size:1em;&quot; cellpadding=&quot;2&quot; cellspacing=&quot;0&quot;&gt;&lt;tbody&gt;&lt;tr&gt;&lt;td&gt;INT&lt;br&gt;INT&lt;/td&gt;&lt;td&gt;id (primary key)&lt;br&gt;status (2)&lt;br&gt;&lt;/td&gt;&lt;/tr&gt;&lt;tr&gt;&lt;td&gt;VARCHAR&lt;br&gt;FLOAT&lt;/td&gt;&lt;td&gt;name (255)&lt;br&gt;amount&lt;/td&gt;&lt;/tr&gt;&lt;/tbody&gt;&lt;/table&gt;" style="verticalAlign=top;align=left;overflow=fill;html=1;rounded=0;shadow=0;comic=0;labelBackgroundColor=none;strokeWidth=1;fontFamily=Verdana;fontSize=12" vertex="1" parent="1">
          <mxGeometry x="670" y="335" width="180" height="90" as="geometry" />
        </mxCell>
        <mxCell id="IIzZKnIERwlUmBjglA4g-30" style="edgeStyle=none;rounded=0;orthogonalLoop=1;jettySize=auto;html=1;exitX=1.004;exitY=0.915;exitDx=0;exitDy=0;entryX=0.012;entryY=0.581;entryDx=0;entryDy=0;entryPerimeter=0;exitPerimeter=0;" edge="1" parent="1" source="2ed32ef02a7f4228-8" target="IIzZKnIERwlUmBjglA4g-28">
          <mxGeometry relative="1" as="geometry" />
        </mxCell>
        <mxCell id="IIzZKnIERwlUmBjglA4g-32" value="&lt;span style=&quot;font-family: Verdana; font-size: 12px; text-align: left; background-color: rgb(251, 251, 251);&quot;&gt;presentation_reference&lt;/span&gt;" style="edgeLabel;html=1;align=center;verticalAlign=middle;resizable=0;points=[];" vertex="1" connectable="0" parent="IIzZKnIERwlUmBjglA4g-30">
          <mxGeometry x="-0.0713" relative="1" as="geometry">
            <mxPoint as="offset" />
          </mxGeometry>
        </mxCell>
        <mxCell id="IIzZKnIERwlUmBjglA4g-34" value="&lt;div style=&quot;box-sizing:border-box;width:100%;background:#e4e4e4;padding:2px;&quot;&gt;iventory_stock&lt;br&gt;&lt;/div&gt;&lt;table style=&quot;width:100%;font-size:1em;&quot; cellpadding=&quot;2&quot; cellspacing=&quot;0&quot;&gt;&lt;tbody&gt;&lt;tr&gt;&lt;td&gt;INT&lt;br&gt;INT&lt;br&gt;INT&lt;br&gt;INT&lt;br&gt;INT&lt;br&gt;INT&lt;/td&gt;&lt;td&gt;id (primary key)&lt;br&gt;product (relationship)&lt;br&gt;reference (relationship)&lt;span style=&quot;background-color: rgb(228, 228, 228);&quot;&gt;&lt;br&gt;&lt;/span&gt;type (in / out)&lt;br&gt;subtype (3)&lt;br&gt;status (2)&lt;br&gt;&lt;/td&gt;&lt;/tr&gt;&lt;tr&gt;&lt;td&gt;DATE&lt;br&gt;FLOAT&lt;br&gt;FLOAT&lt;br&gt;INT&lt;br&gt;VARCHAR&lt;br&gt;INT&amp;nbsp;&lt;br&gt;VARCHAR&lt;br&gt;INT&lt;br&gt;VARCHAR&lt;br&gt;INT&lt;br&gt;VARCHAR&lt;br&gt;VARCHAR&lt;br&gt;DATE&lt;br&gt;VARCHAR&lt;/td&gt;&lt;td&gt;date&lt;br&gt;amount&lt;br&gt;stock&lt;br&gt;supplier_reference (relationship)&lt;br&gt;supplier_name (255)&lt;br&gt;brand_reference (relationship)&lt;br&gt;brand_name (255)&lt;br&gt;laboratory_reference (relationship)&lt;br&gt;laboratory_name (255)&lt;br&gt;subtype_reference (relationship)&lt;br&gt;subtype_name (255)&lt;br&gt;batch (255)&lt;br&gt;validity&lt;br&gt;bar_code (255)&lt;/td&gt;&lt;/tr&gt;&lt;/tbody&gt;&lt;/table&gt;" style="verticalAlign=top;align=left;overflow=fill;html=1;rounded=0;shadow=0;comic=0;labelBackgroundColor=none;strokeWidth=1;fontFamily=Verdana;fontSize=12" vertex="1" parent="1">
          <mxGeometry x="770" y="460" width="290" height="320" as="geometry" />
        </mxCell>
        <mxCell id="IIzZKnIERwlUmBjglA4g-35" style="edgeStyle=orthogonalEdgeStyle;rounded=0;orthogonalLoop=1;jettySize=auto;html=1;exitX=0.5;exitY=1;exitDx=0;exitDy=0;" edge="1" parent="1" source="IIzZKnIERwlUmBjglA4g-34" target="IIzZKnIERwlUmBjglA4g-34">
          <mxGeometry relative="1" as="geometry" />
        </mxCell>
      </root>
    </mxGraphModel>
  </diagram>
</mxfile>
